<?xml version="1.0" encoding="utf-8"?>
<!-- Generator: Adobe Illustrator 22.1.0, SVG Export Plug-In . SVG Version: 6.00 Build 0)  -->
<svg version="1.1" id="b43bf247-fd00-4c66-86de-2f4e4870ba29"
	 xmlns="http://www.w3.org/2000/svg" xmlns:xlink="http://www.w3.org/1999/xlink" x="0px" y="0px" viewBox="0 0 1113.6 784.4"
	 style="enable-background:new 0 0 1113.6 784.4;" xml:space="preserve">
<style type="text/css">
	.st0{opacity:0.6;fill:none;stroke:#CFE4E9;stroke-width:2;stroke-miterlimit:10;}
	.st1{opacity:0.72;fill:url(#SVGID_1_);}
	.st2{fill:url(#SVGID_2_);}
	.st3{fill:#FFFFFF;}
	.st4{opacity:0.12;fill:#001D47;}
	.st5{fill:#06C1ED;}
	.st6{fill:url(#SVGID_3_);}
	.st7{fill:#CFE4E9;}
	.st8{fill:#5A8DAB;}
	.st9{fill:#6494B0;}
	.st10{fill:#78A2BA;}
	.st11{fill:#6E9BB5;}
	.st12{fill:#042A37;}
	.st13{fill:#196E92;}
	.st14{fill:#3F86A4;}
	.st15{opacity:0.15;fill:#001D47;}
	.st16{fill:#00CBFF;}
	.st17{fill:url(#SVGID_4_);}
	.st18{fill:url(#SVGID_5_);}
	.st19{opacity:0.1;}
	.st20{fill:#001D47;}
	.st21{opacity:0.2;fill:url(#SVGID_6_);}
	.st22{fill:url(#SVGID_7_);}
	.st23{fill:#FFCABA;}
	.st24{fill:url(#SVGID_8_);}
	.st25{fill:url(#SVGID_9_);}
	.st26{fill:#004467;}
	.st27{fill:url(#SVGID_10_);}
	.st28{opacity:0.6;}
	.st29{opacity:0.6;fill:#CFE4E9;}
	.st30{opacity:0.35;fill:#CFE4E9;}
</style>
<title>visual data</title>
<path class="st0" d="M828.2,530.9c-0.6-7-1.1-13.5-1.6-19.9c-0.2-2.1,0.3-3.2,2.2-3.9c6.2-2.2,12.5-4.3,18.7-6.3
	c1.8-0.6,3-0.1,4.1,1.5c3.8,5.5,7.6,10.9,11.3,16.4c1.1,1.6,2.4,2.4,4.5,2.2c1.7-0.2,3.4-0.2,5-0.1c1.5,0.1,2.4-0.6,3-1.8
	c3.1-5.7,6.2-11.4,9.2-17.2c1.5-2.9,2.3-3.3,5.5-2.6c3.3,0.7,6.5,1.5,9.8,2.3c2.9,0.7,5.7,1.4,8.6,2.1c1.9,0.5,2.6,1.4,2.7,3.3
	c0.2,6.8,0.5,13.5,0.7,20.3c0,1.6,0.7,2.8,2.1,3.6c1.6,0.9,3.2,1.8,4.8,2.7c1.1,0.6,2.2,0.6,3.3,0c5.8-3.2,11.5-6.4,17.3-9.6
	c2.8-1.6,3.6-1.5,5.9,0.8c4.3,4.4,8.6,8.8,12.9,13.2c1.7,1.8,1.9,2.9,0.6,5c-3.4,5.7-6.8,11.5-10.2,17.1c-0.8,1.4-0.8,2.6-0.1,4
	c0.9,1.7,1.7,3.4,2.8,4.9c0.6,0.8,1.8,1.7,2.8,1.7c6.7,0.6,13.4,0.9,20.1,1.3c2.9,0.2,3.8,0.9,4.4,3.7c1.2,5.5,2.4,11,3.5,16.6
	c0.1,0.6,0.2,1.1,0.3,1.7c0.2,2.7,0,3.1-2.4,4.3c-5.6,2.8-11.2,5.7-16.8,8.4c-1.8,0.9-2.8,2.2-2.8,4.3c0,1.7-0.1,3.5-0.3,5.2
	c-0.2,1.8,0.5,3.1,1.9,4.2c5.4,4,10.8,8,16.2,11.9c1.8,1.4,2.2,2.5,1.4,4.6c-2.1,5.8-4.3,11.7-6.4,17.5c-0.6,1.6-1.6,2.4-3.3,2.2
	c-4.8-0.5-9.7-1-14.5-1.5c-2.1-0.2-4.2-0.6-6.3-0.6c-1,0-2.3,0.6-3,1.4c-1.7,2-3.2,4.3-4.8,6.4c-1,1.3-1.1,2.6-0.5,4.1
	c2.4,6.3,4.8,12.6,7.2,18.9c0.8,2.1,0.5,3.3-1.3,4.6c-4.6,3.5-9.2,7-13.8,10.5c-2.1,1.6-3.3,1.5-5.3-0.1c-5-4.1-10-8.1-15-12.2
	c-1.2-1-2.4-1.3-3.9-0.7c-2.8,1.1-5.5,2.2-8.4,3.2c-1.8,0.6-2.6,1.9-3,3.7c-1.4,6.6-2.8,13.2-4.1,19.8c-0.3,1.6-1.3,2.5-2.8,2.6
	c-6.2,0.4-12.3,0.7-18.5,1.1c-1.7,0.1-2.6-0.7-3.1-2.3c-2-6.3-4.2-12.5-6.2-18.7c-0.6-1.8-1.6-2.8-3.5-3.1c-3.1-0.6-6.1-1.4-9.2-2.1
	c-1.7-0.4-3,0-4.3,1.2c-4.6,4.7-9.2,9.4-13.8,14.1c-1.7,1.7-2.9,1.8-5,0.6c-4.6-2.6-9.3-5.3-14-7.8c-2.5-1.4-3-2.4-2.3-5.1
	c1.6-6.3,3.2-12.5,4.9-18.8c0.4-1.6,0.1-2.9-1.1-4.1c-2.3-2.4-4.6-4.7-6.9-7.2c-1.2-1.3-2.5-1.6-4.1-1.2c-6.5,1.5-13,2.9-19.4,4.4
	c-1.9,0.4-3,0-3.9-1.7c-2.6-5-5.2-10.1-7.7-15.1c-1.2-2.4-1-3.4,0.9-5.3c4.7-4.5,9.5-8.9,14.3-13.3c1.3-1.2,1.7-2.6,1.5-4.2
	c-0.5-3-1.2-6-1.7-9.1c-0.3-1.7-1.2-2.6-2.7-3.1c-6.4-2.3-12.9-4.7-19.3-7c-1.1-0.4-1.7-0.9-1.6-2.2c0.6-6.5,1.1-13,1.8-19.5
	c0.2-1.6,1.2-2.5,2.8-2.8c6.5-1.2,13-2.4,19.6-3.5c2.1-0.4,3.5-1.3,4.3-3.4c0.9-2.3,1.8-4.6,2.8-6.8c0.7-1.5,0.4-2.8-0.6-4.1
	c-4-5.3-8-10.6-12.1-15.9c-1.2-1.5-1.2-2.8,0-4.3c3.8-4.8,7.6-9.5,11.4-14.2c1.6-2,2.6-2.2,5.1-1.2c6,2.5,12,4.9,18,7.4
	c1.9,0.8,3.5,0.9,5.2-0.6c1.3-1.1,2.8-2.1,4.2-3C827.7,533.8,828.5,532.3,828.2,530.9z M809.2,608.2c-0.2,34.6,27.9,63.9,63.7,63.9
	c35.7,0,63.9-29.1,63.7-64.2c-0.2-34.5-28-63.4-63.7-63.5C836.9,544.4,809,573.8,809.2,608.2z"/>
<path class="st0" d="M479.6,60.8c-0.6-7-1.1-13.5-1.6-19.9c-0.2-2.1,0.3-3.2,2.2-3.9c6.2-2.2,12.5-4.3,18.7-6.3
	c1.8-0.6,3-0.1,4.1,1.5c3.8,5.5,7.6,10.9,11.3,16.4c1.1,1.6,2.4,2.4,4.5,2.2c1.7-0.2,3.4-0.2,5-0.1c1.5,0.1,2.4-0.6,3-1.8
	c3.1-5.7,6.2-11.4,9.2-17.2c1.5-2.9,2.3-3.3,5.5-2.6c3.3,0.7,6.5,1.5,9.8,2.3c2.9,0.7,5.7,1.4,8.6,2.1c1.9,0.5,2.6,1.4,2.7,3.3
	c0.2,6.8,0.5,13.5,0.7,20.3c0,1.6,0.7,2.8,2.1,3.6c1.6,0.9,3.2,1.8,4.8,2.7c1.1,0.6,2.2,0.6,3.3,0c5.8-3.2,11.5-6.4,17.3-9.6
	c2.8-1.6,3.6-1.5,5.9,0.8c4.3,4.4,8.6,8.8,12.9,13.2c1.7,1.8,1.9,2.9,0.6,5c-3.4,5.7-6.8,11.5-10.2,17.1c-0.8,1.4-0.8,2.6-0.1,4
	c0.9,1.7,1.7,3.4,2.8,4.9c0.6,0.8,1.8,1.7,2.8,1.7c6.7,0.6,13.4,0.9,20.1,1.3c2.9,0.2,3.8,0.9,4.4,3.7c1.2,5.5,2.4,11,3.5,16.6
	c0.1,0.6,0.2,1.1,0.3,1.7c0.2,2.7,0,3.1-2.4,4.3c-5.6,2.8-11.2,5.7-16.8,8.4c-1.8,0.9-2.8,2.2-2.8,4.3c0,1.7-0.1,3.5-0.3,5.2
	c-0.2,1.8,0.5,3.1,1.9,4.2c5.4,4,10.8,8,16.2,11.9c1.8,1.4,2.2,2.5,1.4,4.6c-2.1,5.8-4.3,11.7-6.4,17.5c-0.6,1.6-1.6,2.4-3.3,2.2
	c-4.8-0.5-9.7-1-14.5-1.5c-2.1-0.2-4.2-0.6-6.3-0.6c-1,0-2.3,0.6-3,1.4c-1.7,2-3.2,4.3-4.8,6.4c-1,1.3-1.1,2.6-0.5,4.1
	c2.4,6.3,4.8,12.6,7.2,18.9c0.8,2.1,0.5,3.3-1.3,4.6c-4.6,3.5-9.2,7-13.8,10.5c-2.1,1.6-3.3,1.5-5.3-0.1c-5-4.1-10-8.1-15-12.2
	c-1.2-1-2.4-1.3-3.9-0.7c-2.8,1.1-5.5,2.2-8.4,3.2c-1.8,0.6-2.6,1.9-3,3.7c-1.4,6.6-2.8,13.2-4.1,19.8c-0.3,1.6-1.3,2.5-2.8,2.6
	c-6.2,0.4-12.3,0.7-18.5,1.1c-1.7,0.1-2.6-0.7-3.1-2.3c-2-6.3-4.2-12.5-6.2-18.7c-0.6-1.8-1.6-2.8-3.5-3.1c-3.1-0.6-6.1-1.4-9.2-2.1
	c-1.7-0.4-3,0-4.3,1.2c-4.6,4.7-9.2,9.4-13.8,14.1c-1.7,1.7-2.9,1.8-5,0.6c-4.6-2.6-9.3-5.3-14-7.8c-2.5-1.4-3-2.4-2.3-5.1
	c1.6-6.3,3.2-12.5,4.9-18.8c0.4-1.6,0.1-2.9-1.1-4.1c-2.3-2.4-4.6-4.7-6.9-7.2c-1.2-1.3-2.5-1.6-4.1-1.2c-6.5,1.5-13,2.9-19.4,4.4
	c-1.9,0.4-3,0-3.9-1.7c-2.6-5-5.2-10.1-7.7-15.1c-1.2-2.4-1-3.4,0.9-5.3c4.7-4.5,9.5-8.9,14.3-13.3c1.3-1.2,1.7-2.6,1.5-4.2
	c-0.5-3-1.2-6-1.7-9.1c-0.3-1.7-1.2-2.6-2.7-3.1c-6.4-2.3-12.9-4.7-19.3-7c-1.1-0.4-1.7-0.9-1.6-2.2c0.6-6.5,1.1-13,1.8-19.5
	c0.2-1.6,1.2-2.5,2.8-2.8c6.5-1.2,13-2.4,19.6-3.5c2.1-0.4,3.5-1.3,4.3-3.4c0.9-2.3,1.8-4.6,2.8-6.8c0.7-1.5,0.4-2.8-0.6-4.1
	c-4-5.3-8-10.6-12.1-15.9c-1.2-1.5-1.2-2.8,0-4.3c3.8-4.8,7.6-9.5,11.4-14.2c1.6-2,2.6-2.2,5.1-1.2c6,2.5,12,4.9,18,7.4
	c1.9,0.8,3.5,0.9,5.2-0.6c1.3-1.1,2.8-2.1,4.2-3C479.1,63.7,479.9,62.3,479.6,60.8z M460.6,138.1c-0.2,34.6,27.9,63.9,63.7,63.9
	c35.7,0,63.9-29.1,63.7-64.2c-0.2-34.5-28-63.4-63.7-63.5C488.3,74.3,460.4,103.8,460.6,138.1z"/>
<path class="st0" d="M812.4,408.7c-0.2-2.9-0.4-5.6-0.7-8.3c-0.1-0.9,0.1-1.3,0.9-1.6c2.6-0.9,5.2-1.8,7.8-2.7
	c0.7-0.2,1.2,0,1.7,0.6c1.6,2.3,3.2,4.6,4.8,6.9c0.5,0.7,1,1,1.9,0.9c0.7-0.1,1.4-0.1,2.1-0.1c0.6,0,1-0.3,1.3-0.8
	c1.3-2.4,2.6-4.8,3.9-7.2c0.6-1.2,1-1.4,2.3-1.1c1.4,0.3,2.7,0.6,4.1,1c1.2,0.3,2.4,0.6,3.6,0.9c0.8,0.2,1.1,0.6,1.1,1.4
	c0.1,2.8,0.2,5.7,0.3,8.5c0,0.7,0.3,1.2,0.9,1.5c0.7,0.4,1.3,0.8,2,1.1c0.5,0.3,0.9,0.2,1.4,0c2.4-1.3,4.8-2.7,7.2-4
	c1.2-0.7,1.5-0.6,2.5,0.3c1.8,1.8,3.6,3.7,5.4,5.5c0.7,0.7,0.8,1.2,0.3,2.1c-1.4,2.4-2.8,4.8-4.3,7.2c-0.3,0.6-0.3,1.1,0,1.7
	c0.4,0.7,0.7,1.4,1.2,2.1c0.3,0.3,0.7,0.7,1.2,0.7c2.8,0.2,5.6,0.4,8.4,0.6c1.2,0.1,1.6,0.4,1.8,1.6c0.5,2.3,1,4.6,1.5,6.9
	c0.1,0.2,0.1,0.5,0.1,0.7c0.1,1.1,0,1.3-1,1.8c-2.4,1.2-4.7,2.4-7.1,3.5c-0.8,0.4-1.2,0.9-1.2,1.8c0,0.7-0.1,1.4-0.1,2.2
	c-0.1,0.8,0.2,1.3,0.8,1.8c2.3,1.7,4.5,3.3,6.8,5c0.8,0.6,0.9,1,0.6,1.9c-0.9,2.4-1.8,4.9-2.7,7.3c-0.2,0.7-0.7,1-1.4,0.9
	c-2-0.2-4.1-0.4-6.1-0.6c-0.9-0.1-1.7-0.3-2.6-0.3c-0.4,0-1,0.3-1.2,0.6c-0.7,0.8-1.3,1.8-2,2.7c-0.4,0.5-0.5,1.1-0.2,1.7
	c1,2.6,2,5.3,3,7.9c0.3,0.9,0.2,1.4-0.5,1.9c-1.9,1.5-3.8,2.9-5.8,4.4c-0.9,0.7-1.4,0.6-2.2,0c-2.1-1.7-4.2-3.4-6.3-5.1
	c-0.5-0.4-1-0.6-1.7-0.3c-1.2,0.5-2.3,0.9-3.5,1.3c-0.8,0.3-1.1,0.8-1.3,1.5c-0.6,2.8-1.2,5.5-1.7,8.3c-0.1,0.7-0.5,1-1.2,1.1
	c-2.6,0.2-5.2,0.3-7.8,0.5c-0.7,0-1.1-0.3-1.3-1c-0.9-2.6-1.8-5.2-2.6-7.9c-0.2-0.8-0.7-1.2-1.5-1.3c-1.3-0.3-2.6-0.6-3.8-0.9
	c-0.7-0.2-1.3,0-1.8,0.5c-1.9,2-3.8,3.9-5.8,5.9c-0.7,0.7-1.2,0.8-2.1,0.3c-1.9-1.1-3.9-2.2-5.9-3.3c-1-0.6-1.2-1-0.9-2.1
	c0.7-2.6,1.4-5.3,2-7.9c0.2-0.7,0-1.2-0.5-1.7c-1-1-1.9-2-2.9-3c-0.5-0.5-1-0.7-1.7-0.5c-2.7,0.6-5.4,1.2-8.1,1.8
	c-0.8,0.2-1.3,0-1.6-0.7c-1.1-2.1-2.2-4.2-3.2-6.3c-0.5-1-0.4-1.4,0.4-2.2c2-1.9,4-3.7,6-5.6c0.6-0.5,0.7-1.1,0.6-1.8
	c-0.2-1.3-0.5-2.5-0.7-3.8c-0.1-0.7-0.5-1.1-1.1-1.3c-2.7-1-5.4-2-8.1-2.9c-0.5-0.2-0.7-0.4-0.7-0.9c0.3-2.7,0.5-5.5,0.7-8.2
	c0.1-0.7,0.5-1.1,1.2-1.2c2.7-0.5,5.5-1,8.2-1.5c0.9-0.1,1.5-0.6,1.8-1.4c0.4-1,0.7-1.9,1.2-2.9c0.3-0.6,0.2-1.2-0.2-1.7
	c-1.7-2.2-3.4-4.4-5.1-6.7c-0.5-0.6-0.5-1.2,0-1.8c1.6-2,3.2-4,4.8-6c0.7-0.9,1.1-0.9,2.1-0.5c2.5,1,5,2.1,7.5,3.1
	c0.8,0.3,1.5,0.4,2.2-0.2c0.5-0.5,1.2-0.9,1.8-1.2C812.2,409.9,812.5,409.3,812.4,408.7z M804.4,441.1
	c-0.1,14.5,11.7,26.8,26.7,26.8c14.9,0,26.8-12.2,26.7-26.9c-0.1-14.5-11.7-26.6-26.7-26.6C816,414.4,804.4,426.7,804.4,441.1z"/>
<path class="st0" d="M182.5,576.7c-0.2-2.9-0.4-5.6-0.7-8.3c-0.1-0.9,0.1-1.3,0.9-1.6c2.6-0.9,5.2-1.8,7.8-2.7
	c0.7-0.2,1.2,0,1.7,0.6c1.6,2.3,3.2,4.6,4.8,6.9c0.5,0.7,1,1,1.9,0.9c0.7-0.1,1.4-0.1,2.1-0.1c0.6,0,1-0.3,1.3-0.8
	c1.3-2.4,2.6-4.8,3.9-7.2c0.6-1.2,1-1.4,2.3-1.1c1.4,0.3,2.7,0.6,4.1,1c1.2,0.3,2.4,0.6,3.6,0.9c0.8,0.2,1.1,0.6,1.1,1.4
	c0.1,2.8,0.2,5.7,0.3,8.5c0,0.7,0.3,1.2,0.9,1.5c0.7,0.4,1.3,0.8,2,1.1c0.5,0.3,0.9,0.2,1.4,0c2.4-1.3,4.8-2.7,7.2-4
	c1.2-0.7,1.5-0.6,2.5,0.3c1.8,1.8,3.6,3.7,5.4,5.5c0.7,0.7,0.8,1.2,0.3,2.1c-1.4,2.4-2.8,4.8-4.3,7.2c-0.3,0.6-0.3,1.1,0,1.7
	c0.4,0.7,0.7,1.4,1.2,2.1c0.3,0.3,0.7,0.7,1.2,0.7c2.8,0.2,5.6,0.4,8.4,0.6c1.2,0.1,1.6,0.4,1.8,1.6c0.5,2.3,1,4.6,1.5,6.9
	c0.1,0.2,0.1,0.5,0.1,0.7c0.1,1.1,0,1.3-1,1.8c-2.4,1.2-4.7,2.4-7.1,3.5c-0.8,0.4-1.2,0.9-1.2,1.8c0,0.7-0.1,1.4-0.1,2.2
	c-0.1,0.8,0.2,1.3,0.8,1.8c2.3,1.7,4.5,3.3,6.8,5c0.8,0.6,0.9,1,0.6,1.9c-0.9,2.4-1.8,4.9-2.7,7.3c-0.2,0.7-0.7,1-1.4,0.9
	c-2-0.2-4.1-0.4-6.1-0.6c-0.9-0.1-1.7-0.3-2.6-0.3c-0.4,0-1,0.3-1.2,0.6c-0.7,0.8-1.3,1.8-2,2.7c-0.4,0.5-0.5,1.1-0.2,1.7
	c1,2.6,2,5.3,3,7.9c0.3,0.9,0.2,1.4-0.5,1.9c-1.9,1.5-3.8,2.9-5.8,4.4c-0.9,0.7-1.4,0.6-2.2,0c-2.1-1.7-4.2-3.4-6.3-5.1
	c-0.5-0.4-1-0.6-1.7-0.3c-1.2,0.5-2.3,0.9-3.5,1.3c-0.8,0.3-1.1,0.8-1.3,1.5c-0.6,2.8-1.2,5.5-1.7,8.3c-0.1,0.7-0.5,1-1.2,1.1
	c-2.6,0.2-5.2,0.3-7.8,0.5c-0.7,0-1.1-0.3-1.3-1c-0.9-2.6-1.8-5.2-2.6-7.9c-0.2-0.8-0.7-1.2-1.5-1.3c-1.3-0.3-2.6-0.6-3.8-0.9
	c-0.7-0.2-1.3,0-1.8,0.5c-1.9,2-3.8,3.9-5.8,5.9c-0.7,0.7-1.2,0.8-2.1,0.3c-1.9-1.1-3.9-2.2-5.9-3.3c-1-0.6-1.2-1-0.9-2.1
	c0.7-2.6,1.4-5.3,2-7.9c0.2-0.7,0-1.2-0.5-1.7c-1-1-1.9-2-2.9-3c-0.5-0.5-1-0.7-1.7-0.5c-2.7,0.6-5.4,1.2-8.1,1.8
	c-0.8,0.2-1.3,0-1.6-0.7c-1.1-2.1-2.2-4.2-3.2-6.3c-0.5-1-0.4-1.4,0.4-2.2c2-1.9,4-3.7,6-5.6c0.6-0.5,0.7-1.1,0.6-1.8
	c-0.2-1.3-0.5-2.5-0.7-3.8c-0.1-0.7-0.5-1.1-1.1-1.3c-2.7-1-5.4-2-8.1-2.9c-0.5-0.2-0.7-0.4-0.7-0.9c0.3-2.7,0.5-5.5,0.7-8.2
	c0.1-0.7,0.5-1.1,1.2-1.2c2.7-0.5,5.5-1,8.2-1.5c0.9-0.1,1.5-0.6,1.8-1.4c0.4-1,0.7-1.9,1.2-2.9c0.3-0.6,0.2-1.2-0.2-1.7
	c-1.7-2.2-3.4-4.4-5.1-6.7c-0.5-0.6-0.5-1.2,0-1.8c1.6-2,3.2-4,4.8-6c0.7-0.9,1.1-0.9,2.1-0.5c2.5,1,5,2.1,7.5,3.1
	c0.8,0.3,1.5,0.4,2.2-0.2c0.6-0.5,1.2-0.9,1.8-1.2C182.2,577.9,182.6,577.3,182.5,576.7z M174.5,609.1
	c-0.1,14.5,11.7,26.8,26.7,26.8c14.9,0,26.8-12.2,26.7-26.9c-0.1-14.5-11.7-26.6-26.7-26.6C186.1,582.3,174.4,594.7,174.5,609.1z"/>
<path class="st0" d="M641.5,13.4c-0.2-2.9-0.4-5.6-0.7-8.3c-0.1-0.9,0.1-1.3,0.9-1.6c2.6-0.9,5.2-1.8,7.8-2.7c0.7-0.2,1.2,0,1.7,0.6
	c1.6,2.3,3.2,4.6,4.8,6.9c0.5,0.7,1,1,1.9,0.9c0.7-0.1,1.4-0.1,2.1-0.1c0.6,0,1-0.3,1.3-0.8c1.3-2.4,2.6-4.8,3.9-7.2
	c0.6-1.2,1-1.4,2.3-1.1c1.4,0.3,2.7,0.6,4.1,1c1.2,0.3,2.4,0.6,3.6,0.9c0.8,0.2,1.1,0.6,1.1,1.4c0.1,2.8,0.2,5.7,0.3,8.5
	c0,0.7,0.3,1.2,0.9,1.5c0.7,0.4,1.3,0.8,2,1.1c0.5,0.3,0.9,0.2,1.4,0c2.4-1.3,4.8-2.7,7.2-4c1.2-0.7,1.5-0.6,2.5,0.3
	c1.8,1.8,3.6,3.7,5.4,5.5c0.7,0.7,0.8,1.2,0.3,2.1c-1.4,2.4-2.8,4.8-4.3,7.2c-0.3,0.6-0.3,1.1,0,1.7c0.4,0.7,0.7,1.4,1.2,2.1
	c0.3,0.3,0.7,0.7,1.2,0.7c2.8,0.2,5.6,0.4,8.4,0.6c1.2,0.1,1.6,0.4,1.8,1.6c0.5,2.3,1,4.6,1.5,6.9c0.1,0.2,0.1,0.5,0.1,0.7
	c0.1,1.1,0,1.3-1,1.8c-2.4,1.2-4.7,2.4-7.1,3.5c-0.8,0.4-1.2,0.9-1.2,1.8c0,0.7-0.1,1.4-0.1,2.2c-0.1,0.8,0.2,1.3,0.8,1.8
	c2.3,1.7,4.5,3.3,6.8,5c0.8,0.6,0.9,1,0.6,1.9c-0.9,2.4-1.8,4.9-2.7,7.3c-0.2,0.7-0.7,1-1.4,0.9c-2-0.2-4.1-0.4-6.1-0.6
	c-0.9-0.1-1.7-0.3-2.6-0.3c-0.4,0-1,0.3-1.2,0.6c-0.7,0.8-1.3,1.8-2,2.7c-0.4,0.5-0.5,1.1-0.2,1.7c1,2.6,2,5.3,3,7.9
	c0.3,0.9,0.2,1.4-0.5,1.9c-1.9,1.5-3.8,2.9-5.8,4.4c-0.9,0.7-1.4,0.6-2.2,0c-2.1-1.7-4.2-3.4-6.3-5.1c-0.5-0.4-1-0.6-1.7-0.3
	c-1.2,0.5-2.3,0.9-3.5,1.3c-0.8,0.3-1.1,0.8-1.3,1.5c-0.6,2.8-1.2,5.5-1.7,8.3c-0.1,0.7-0.5,1-1.2,1.1c-2.6,0.2-5.2,0.3-7.8,0.5
	c-0.7,0-1.1-0.3-1.3-1c-0.9-2.6-1.8-5.2-2.6-7.9c-0.2-0.8-0.7-1.2-1.5-1.3c-1.3-0.3-2.6-0.6-3.8-0.9c-0.7-0.2-1.3,0-1.8,0.5
	c-1.9,2-3.8,3.9-5.8,5.9c-0.7,0.7-1.2,0.8-2.1,0.3c-1.9-1.1-3.9-2.2-5.9-3.3c-1-0.6-1.2-1-0.9-2.1c0.7-2.6,1.3-5.3,2-7.9
	c0.2-0.7,0-1.2-0.5-1.7c-1-1-1.9-2-2.9-3c-0.5-0.5-1-0.7-1.7-0.5c-2.7,0.6-5.4,1.2-8.1,1.8c-0.8,0.2-1.3,0-1.6-0.7
	c-1.1-2.1-2.2-4.2-3.2-6.3c-0.5-1-0.4-1.4,0.4-2.2c2-1.9,4-3.7,6-5.6c0.6-0.5,0.7-1.1,0.6-1.8c-0.2-1.3-0.5-2.5-0.7-3.8
	c-0.1-0.7-0.5-1.1-1.1-1.3c-2.7-1-5.4-2-8.1-2.9c-0.5-0.2-0.7-0.4-0.7-0.9c0.3-2.7,0.5-5.5,0.7-8.2c0.1-0.7,0.5-1.1,1.2-1.2
	c2.7-0.5,5.5-1,8.2-1.5c0.9-0.1,1.5-0.6,1.8-1.4c0.4-1,0.7-1.9,1.2-2.9c0.3-0.6,0.2-1.2-0.2-1.7c-1.7-2.2-3.4-4.4-5.1-6.7
	c-0.5-0.6-0.5-1.2,0-1.8c1.6-2,3.2-4,4.8-6c0.7-0.9,1.1-0.9,2.1-0.5c2.5,1,5,2.1,7.5,3.1c0.8,0.3,1.5,0.4,2.2-0.2
	c0.5-0.5,1.2-0.9,1.8-1.2C641.2,14.6,641.6,14,641.5,13.4z M633.5,45.8c-0.1,14.5,11.7,26.8,26.7,26.8c14.9,0,26.8-12.2,26.7-26.9
	c-0.1-14.5-11.7-26.6-26.7-26.6C645.1,19.1,633.4,31.4,633.5,45.8z"/>
<path class="st0" d="M191.9,404c-0.4-4.8-0.7-9.1-1.1-13.5c-0.1-1.4,0.2-2.2,1.5-2.6c4.2-1.5,8.4-2.9,12.7-4.3c1.2-0.4,2,0,2.7,1
	c2.6,3.7,5.1,7.4,7.7,11.1c0.8,1.1,1.6,1.7,3,1.5c1.1-0.1,2.3-0.1,3.4-0.1c1,0,1.6-0.4,2-1.2c2.1-3.9,4.2-7.7,6.2-11.6
	c1-1.9,1.6-2.3,3.8-1.8c2.2,0.5,4.4,1,6.6,1.6c1.9,0.5,3.9,0.9,5.8,1.4c1.3,0.3,1.8,0.9,1.8,2.3c0.2,4.6,0.3,9.2,0.5,13.7
	c0,1.1,0.4,1.9,1.4,2.5c1.1,0.6,2.1,1.2,3.2,1.9c0.7,0.4,1.5,0.4,2.2,0c3.9-2.2,7.8-4.3,11.7-6.5c1.9-1.1,2.5-1,4,0.5
	c2.9,3,5.8,6,8.7,8.9c1.2,1.2,1.3,2,0.4,3.4c-2.3,3.9-4.6,7.8-6.9,11.6c-0.6,0.9-0.6,1.8-0.1,2.7c0.6,1.1,1.1,2.3,1.9,3.3
	c0.4,0.6,1.2,1.1,1.9,1.2c4.5,0.4,9.1,0.6,13.6,0.9c1.9,0.1,2.5,0.6,2.9,2.5c0.8,3.7,1.6,7.5,2.4,11.2c0.1,0.4,0.2,0.8,0.2,1.2
	c0.1,1.8,0,2.1-1.7,2.9c-3.8,1.9-7.6,3.8-11.4,5.7c-1.2,0.6-1.9,1.5-1.9,2.9c0,1.2-0.1,2.3-0.2,3.5c-0.1,1.2,0.3,2.1,1.3,2.8
	c3.7,2.7,7.3,5.4,11,8.1c1.2,0.9,1.5,1.7,1,3.1c-1.4,4-2.9,7.9-4.3,11.9c-0.4,1.1-1.1,1.6-2.3,1.5c-3.3-0.3-6.6-0.7-9.9-1
	c-1.4-0.1-2.8-0.4-4.2-0.4c-0.7,0-1.6,0.4-2,0.9c-1.2,1.4-2.2,2.9-3.3,4.3c-0.7,0.9-0.7,1.8-0.3,2.8c1.6,4.3,3.3,8.5,4.9,12.8
	c0.6,1.4,0.3,2.2-0.9,3.1c-3.1,2.4-6.2,4.7-9.3,7.1c-1.4,1.1-2.2,1-3.6-0.1c-3.4-2.8-6.8-5.5-10.2-8.2c-0.8-0.7-1.7-0.9-2.7-0.5
	c-1.9,0.7-3.8,1.5-5.7,2.2c-1.2,0.4-1.8,1.3-2,2.5c-0.9,4.5-1.9,8.9-2.8,13.4c-0.2,1.1-0.9,1.7-1.9,1.7c-4.2,0.3-8.4,0.5-12.5,0.7
	c-1.1,0.1-1.8-0.5-2.1-1.5c-1.4-4.2-2.8-8.5-4.2-12.7c-0.4-1.2-1.1-1.9-2.4-2.1c-2.1-0.4-4.1-0.9-6.2-1.4c-1.1-0.3-2.1,0-2.9,0.8
	c-3.1,3.2-6.2,6.4-9.3,9.5c-1.2,1.2-2,1.2-3.4,0.4c-3.1-1.8-6.3-3.6-9.5-5.3c-1.7-0.9-2-1.6-1.5-3.5c1.1-4.2,2.2-8.5,3.3-12.7
	c0.3-1.1,0-2-0.7-2.8c-1.6-1.6-3.1-3.2-4.7-4.9c-0.8-0.9-1.7-1.1-2.8-0.8c-4.4,1-8.8,2-13.2,3c-1.3,0.3-2.1,0-2.7-1.2
	c-1.8-3.4-3.5-6.8-5.2-10.2c-0.8-1.6-0.7-2.3,0.6-3.6c3.2-3,6.4-6,9.7-9c0.9-0.8,1.2-1.7,1-2.9c-0.4-2.1-0.8-4.1-1.2-6.2
	c-0.2-1.1-0.8-1.7-1.8-2.1c-4.4-1.6-8.7-3.2-13.1-4.8c-0.8-0.3-1.2-0.6-1.1-1.5c0.4-4.4,0.8-8.8,1.2-13.2c0.1-1.1,0.8-1.7,1.9-1.9
	c4.4-0.8,8.8-1.6,13.3-2.3c1.4-0.2,2.4-0.9,2.9-2.3c0.6-1.6,1.2-3.1,1.9-4.6c0.5-1,0.3-1.9-0.4-2.8c-2.7-3.6-5.5-7.2-8.2-10.8
	c-0.8-1-0.8-1.9,0-2.9c2.6-3.2,5.1-6.4,7.7-9.6c1.1-1.4,1.8-1.5,3.4-0.8c4.1,1.7,8.1,3.3,12.2,5c1.3,0.5,2.4,0.6,3.5-0.4
	c0.9-0.8,1.9-1.4,2.9-2C191.5,406,192.1,405.1,191.9,404z M179,456.5c-0.1,23.5,18.9,43.3,43.2,43.3c24.2,0,43.3-19.7,43.2-43.5
	c-0.1-23.4-19-43-43.1-43C197.8,413.2,178.9,433.2,179,456.5z"/>
<linearGradient id="SVGID_1_" gradientUnits="userSpaceOnUse" x1="712.6537" y1="216.7885" x2="958.5621" y2="216.7885">
	<stop  offset="0" style="stop-color:#CFE4E9"/>
	<stop  offset="1" style="stop-color:#CFE4E9;stop-opacity:0.7"/>
</linearGradient>
<path class="st1" d="M953.6,351.7H717.6c-2.8,0-5-2.2-5-5V86.8c0-2.8,2.2-5,5-5h235.9c2.8,0,5,2.2,5,5v259.9
	C958.6,349.5,956.3,351.7,953.6,351.7z"/>
<g>
	<linearGradient id="SVGID_2_" gradientUnits="userSpaceOnUse" x1="189.6598" y1="293.0514" x2="364.0914" y2="293.0514">
		<stop  offset="0" style="stop-color:#CFE4E9"/>
		<stop  offset="1" style="stop-color:#CFE4E9;stop-opacity:0.7"/>
	</linearGradient>
	<path class="st2" d="M360.6,323H193.2c-1.9,0-3.5-1.6-3.5-3.5v-52.9c0-1.9,1.6-3.5,3.5-3.5h167.4c1.9,0,3.5,1.6,3.5,3.5v52.9
		C364.1,321.4,362.5,323,360.6,323z"/>
	<path class="st3" d="M240.8,311.9h-37.6c-1.2,0-2.1-1-2.1-2.1v-32.7c0-1.2,1-2.1,2.1-2.1h37.6c1.2,0,2.1,1,2.1,2.1v32.7
		C243,311,242,311.9,240.8,311.9z"/>
	<g>
		<path class="st4" d="M339.4,283.1h-77.5c-1.7,0-3,1.4-3,3c0,1.7,1.4,3,3,3h77.5c1.7,0,3-1.4,3-3
			C342.4,284.5,341.1,283.1,339.4,283.1z"/>
		<path class="st4" d="M299.6,296.9h-37.6c-1.7,0-3,1.4-3,3s1.4,3,3,3h37.6c1.7,0,3-1.4,3-3S301.2,296.9,299.6,296.9z"/>
	</g>
</g>
<g>
	<g>
		<path class="st5" d="M908.3,170.4H762.9c-1.9,0-3.5-1.6-3.5-3.5v-45.3c0-1.9,1.6-3.5,3.5-3.5h145.5c1.9,0,3.5,1.6,3.5,3.5v45.3
			C911.8,168.9,910.3,170.4,908.3,170.4z"/>
		<path class="st3" d="M803.8,160.8h-32.3c-1.2,0-2.1-1-2.1-2.1v-28c0-1.2,1-2.1,2.1-2.1h32.3c1.2,0,2.1,1,2.1,2.1v28
			C806,159.8,805,160.8,803.8,160.8z"/>
		<g>
			<path class="st4" d="M890.3,135.6h-67.7c-1.5,0-2.7,1.2-2.7,2.7c0,1.5,1.2,2.7,2.7,2.7h67.7c1.5,0,2.7-1.2,2.7-2.7
				C892.9,136.8,891.7,135.6,890.3,135.6z"/>
			<path class="st4" d="M855.4,147.6h-32.9c-1.5,0-2.7,1.2-2.7,2.7c0,1.5,1.2,2.7,2.7,2.7h32.9c1.5,0,2.7-1.2,2.7-2.7
				C858.1,148.8,856.9,147.6,855.4,147.6z"/>
		</g>
	</g>
	<g>
		<linearGradient id="SVGID_3_" gradientUnits="userSpaceOnUse" x1="759.3756" y1="216.7885" x2="911.8399" y2="216.7885">
			<stop  offset="0" style="stop-color:#3F86A4"/>
			<stop  offset="1" style="stop-color:#1F7795"/>
		</linearGradient>
		<path class="st6" d="M908.3,243H762.9c-1.9,0-3.5-1.6-3.5-3.5v-45.3c0-1.9,1.6-3.5,3.5-3.5h145.5c1.9,0,3.5,1.6,3.5,3.5v45.3
			C911.8,241.4,910.3,243,908.3,243z"/>
		<path class="st3" d="M803.8,233.3h-32.3c-1.2,0-2.1-1-2.1-2.1v-28c0-1.2,1-2.1,2.1-2.1h32.3c1.2,0,2.1,1,2.1,2.1v28
			C806,232.3,805,233.3,803.8,233.3z"/>
		<g>
			<path class="st4" d="M890.3,208.1h-67.7c-1.5,0-2.7,1.2-2.7,2.7c0,1.5,1.2,2.7,2.7,2.7h67.7c1.5,0,2.7-1.2,2.7-2.7
				C892.9,209.3,891.7,208.1,890.3,208.1z"/>
			<path class="st4" d="M855.4,220.1h-32.9c-1.5,0-2.7,1.2-2.7,2.7c0,1.5,1.2,2.7,2.7,2.7h32.9c1.5,0,2.7-1.2,2.7-2.7
				C858.1,221.3,856.9,220.1,855.4,220.1z"/>
		</g>
	</g>
	<g>
		<path class="st3" d="M908.3,315.5H762.9c-1.9,0-3.5-1.6-3.5-3.5v-45.3c0-1.9,1.6-3.5,3.5-3.5h145.5c1.9,0,3.5,1.6,3.5,3.5V312
			C911.8,313.9,910.3,315.5,908.3,315.5z"/>
		<path class="st7" d="M803.8,305.8h-32.3c-1.2,0-2.1-1-2.1-2.1v-28c0-1.2,1-2.1,2.1-2.1h32.3c1.2,0,2.1,1,2.1,2.1v28
			C806,304.8,805,305.8,803.8,305.8z"/>
		<g>
			<path class="st4" d="M890.3,280.6h-67.7c-1.5,0-2.7,1.2-2.7,2.7c0,1.5,1.2,2.7,2.7,2.7h67.7c1.5,0,2.7-1.2,2.7-2.7
				C892.9,281.8,891.7,280.6,890.3,280.6z"/>
			<path class="st4" d="M855.4,292.6h-32.9c-1.5,0-2.7,1.2-2.7,2.7s1.2,2.7,2.7,2.7h32.9c1.5,0,2.7-1.2,2.7-2.7
				S856.9,292.6,855.4,292.6z"/>
		</g>
	</g>
</g>
<g>
	<g>
		<g>
			<path class="st8" d="M220.5,450.9L388.8,375c4-1.8,9-0.5,11.1,3l0,0c2.1,3.5,0.5,7.8-3.5,9.7l-168.3,75.9c-4,1.8-9,0.5-11.1-3
				l0,0C214.9,457,216.5,452.7,220.5,450.9z"/>
			<path class="st9" d="M396.4,450.9L228.2,375c-4-1.8-9-0.5-11.1,3l0,0c-2.1,3.5-0.5,7.8,3.5,9.7l168.3,75.9c4,1.8,9,0.5,11.1-3
				l0,0C402.1,457,400.5,452.7,396.4,450.9z"/>
		</g>
		<g>
			<path class="st8" d="M220.5,527.2l168.3-75.9c4-1.8,9-0.5,11.1,3l0,0c2.1,3.5,0.5,7.8-3.5,9.7l-168.3,75.9c-4,1.8-9,0.5-11.1-3
				l0,0C214.9,533.4,216.5,529,220.5,527.2z"/>
			<path class="st9" d="M396.4,527.2l-168.3-75.9c-4-1.8-9-0.5-11.1,3l0,0c-2.1,3.5-0.5,7.8,3.5,9.7l168.3,75.9c4,1.8,9,0.5,11.1-3
				l0,0C402.1,533.4,400.5,529,396.4,527.2z"/>
		</g>
	</g>
	<g>
		<g>
			<path class="st8" d="M220.5,603.4l168.3-75.9c4-1.8,9-0.5,11.1,3l0,0c2.1,3.5,0.5,7.8-3.5,9.7l-168.3,75.9c-4,1.8-9,0.5-11.1-3
				l0,0C214.9,609.6,216.5,605.2,220.5,603.4z"/>
			<path class="st9" d="M396.4,603.4l-168.3-75.9c-4-1.8-9-0.5-11.1,3l0,0c-2.1,3.5-0.5,7.8,3.5,9.7l168.3,75.9c4,1.8,9,0.5,11.1-3
				l0,0C402.1,609.6,400.5,605.2,396.4,603.4z"/>
		</g>
		<g>
			<path class="st8" d="M220.5,679.8l168.3-75.9c4-1.8,9-0.5,11.1,3v0c2.1,3.5,0.5,7.8-3.5,9.7l-168.3,75.9c-4,1.8-9,0.5-11.1-3l0,0
				C214.9,685.9,216.5,681.6,220.5,679.8z"/>
			<path class="st9" d="M396.4,679.8l-168.3-75.9c-4-1.8-9-0.5-11.1,3v0c-2.1,3.5-0.5,7.8,3.5,9.7l168.3,75.9c4,1.8,9,0.5,11.1-3
				l0,0C402.1,685.9,400.5,681.6,396.4,679.8z"/>
		</g>
		<g>
			<path class="st8" d="M220.5,756.1l168.3-75.9c4-1.8,9-0.5,11.1,3l0,0c2.1,3.5,0.5,7.8-3.5,9.7l-168.3,75.9c-4,1.8-9,0.5-11.1-3
				l0,0C214.9,762.2,216.5,757.9,220.5,756.1z"/>
			<path class="st9" d="M396.4,756.1l-168.3-75.9c-4-1.8-9-0.5-11.1,3l0,0c-2.1,3.5-0.5,7.8,3.5,9.7l168.3,75.9c4,1.8,9,0.5,11.1-3
				l0,0C402.1,762.2,400.5,757.9,396.4,756.1z"/>
		</g>
	</g>
</g>
<path class="st10" d="M500.8,377.3H176.5v-22.7c0-1.6,1.3-3,3-3h321.3V377.3z"/>
<path class="st11" d="M500.8,377.3H176.5v13.8c0,1.6,1.3,3,3,3h321.3V377.3z"/>
<path class="st10" d="M708.9,680.9v25.3h162.9v-19c0-3.5-2.8-6.4-6.4-6.4H708.9z"/>
<path class="st11" d="M708.9,706.3v25.3h190.7v-19c0-3.5-2.8-6.4-6.4-6.4H708.9z"/>
<path class="st9" d="M708.9,731.6v25.3h218.5v-19c0-3.5-2.8-6.4-6.4-6.4H708.9z"/>
<path class="st8" d="M708.9,756.9v25.3h244.3v-19c0-3.5-2.8-6.4-6.4-6.4H708.9z"/>
<path class="st8" d="M420.8,756.9v25.3H176.5v-19c0-3.5,2.8-6.4,6.4-6.4H420.8z"/>
<path class="st12" d="M351.7,567.9l44.2,37.7c3.4,2.9,4.4,7.8,2.3,11.8l0,0c-2.7,5.1-9.1,6.7-13.9,3.5l-43.7-29.2L351.7,567.9z"/>
<path class="st12" d="M399.3,270l0.4-8.7l-44.2-17v8.9c0,6.6,0.5,13.2,1.5,19.7C371.1,275.2,385.7,273.9,399.3,270z"/>
<path class="st13" d="M397.4,314.3l1.9-44.3c-13.6,3.8-28.2,5.2-42.3,2.9c0.5,3.2,1.1,6.3,1.9,9.5
	C378.3,278,389.1,296.1,397.4,314.3z"/>
<path class="st14" d="M358.9,282.4c3,12.9,7.9,25.3,14.7,36.8l22,37.1l1.8-41.9C389.1,296.1,378.3,278,358.9,282.4z"/>
<g>
	<g>
		<g>
			<path class="st3" d="M389.3,754.9c0,15.1,12.2,27.3,27.3,27.3l298,0c15.1,0,27.3-12.2,27.3-27.3l0-595
				c0-15.1-12.2-27.3-27.3-27.3l-298,0c-15.1,0-27.3,12.2-27.3,27.3V754.9z"/>
			<path class="st15" d="M515.9,158.6c0,2,1.6,3.7,3.7,3.7h89.2c2,0,3.7-1.6,3.7-3.7l0,0c0-2-1.6-3.7-3.7-3.7l-89.2,0
				C517.6,154.9,515.9,156.5,515.9,158.6L515.9,158.6z"/>
			<g>
				<path class="st15" d="M530.5,729c0,19.4,15.7,35.1,35.1,35.1c19.4,0,35.1-15.7,35.1-35.1c0-19.4-15.7-35.1-35.1-35.1
					C546.2,693.9,530.5,709.6,530.5,729z"/>
				<path class="st3" d="M537.6,729c0,15.5,12.5,28,28,28c15.5,0,28-12.6,28-28c0-15.5-12.5-28-28-28
					C550.1,700.9,537.6,713.5,537.6,729z"/>
			</g>
			<rect x="389.3" y="186.4" class="st7" width="352.6" height="489.2"/>
			<rect x="389.3" y="186.4" class="st16" width="352.6" height="165.3"/>
			<linearGradient id="SVGID_4_" gradientUnits="userSpaceOnUse" x1="403.2315" y1="233.1871" x2="727.9752" y2="233.1871">
				<stop  offset="0" style="stop-color:#CFE4E9"/>
				<stop  offset="1" style="stop-color:#CFE4E9;stop-opacity:0.7"/>
			</linearGradient>
			<path class="st17" d="M724.5,263.1H406.7c-1.9,0-3.5-1.6-3.5-3.5v-52.9c0-1.9,1.6-3.5,3.5-3.5h317.7c1.9,0,3.5,1.6,3.5,3.5v52.9
				C728,261.6,726.4,263.1,724.5,263.1z"/>
			<path class="st3" d="M454.4,252h-37.6c-1.2,0-2.1-1-2.1-2.1v-32.7c0-1.2,1-2.1,2.1-2.1h37.6c1.2,0,2.1,1,2.1,2.1v32.7
				C456.5,251.1,455.6,252,454.4,252z"/>
			<linearGradient id="SVGID_5_" gradientUnits="userSpaceOnUse" x1="403.2315" y1="418.6561" x2="727.9752" y2="418.6561">
				<stop  offset="0" style="stop-color:#3F86A4"/>
				<stop  offset="1" style="stop-color:#1F7795"/>
			</linearGradient>
			<path class="st18" d="M724.5,448.6H406.7c-1.9,0-3.5-1.6-3.5-3.5v-52.9c0-1.9,1.6-3.5,3.5-3.5h317.7c1.9,0,3.5,1.6,3.5,3.5v52.9
				C728,447,726.4,448.6,724.5,448.6z"/>
			<path class="st5" d="M554.7,627.9h-148c-1.9,0-3.5-1.6-3.5-3.5V584c0-1.9,1.6-3.5,3.5-3.5h148c1.9,0,3.5,1.6,3.5,3.5v40.5
				C558.2,626.4,556.7,627.9,554.7,627.9z"/>
			<path class="st4" d="M525.6,609.1h-89.8c-2.7,0-4.9-2.2-4.9-4.9l0,0c0-2.7,2.2-4.9,4.9-4.9h89.8c2.7,0,4.9,2.2,4.9,4.9l0,0
				C530.5,606.9,528.3,609.1,525.6,609.1z"/>
			<path class="st5" d="M724.5,627.9h-148c-1.9,0-3.5-1.6-3.5-3.5V584c0-1.9,1.6-3.5,3.5-3.5h148c1.9,0,3.5,1.6,3.5,3.5v40.5
				C728,626.4,726.4,627.9,724.5,627.9z"/>
			<path class="st4" d="M695.4,609.1h-89.8c-2.7,0-4.9-2.2-4.9-4.9l0,0c0-2.7,2.2-4.9,4.9-4.9h89.8c2.7,0,4.9,2.2,4.9,4.9l0,0
				C700.3,606.9,698.1,609.1,695.4,609.1z"/>
		</g>
		<g class="st19">
			<g>
				<g>
					<path class="st20" d="M741.9,159.9c0-15.1-12.2-27.3-27.3-27.3h-7.8c3.6,5,5.9,11.6,5.9,18.8l0,612.1c0,7.2-2.2,13.8-5.9,18.8
						h7.8c15.1,0,27.3-12.2,27.3-27.3L741.9,159.9z"/>
				</g>
				<g>
					<path class="st20" d="M418.6,763.5V151.3c0-7.2,2.2-13.8,5.9-18.8h-7.8c-15.1,0-27.3,12.2-27.3,27.3v595
						c0,15.1,12.2,27.3,27.3,27.3h7.8C420.8,777.3,418.6,770.7,418.6,763.5z"/>
				</g>
			</g>
		</g>
		<g>
			<path class="st4" d="M707.4,408.7H423.8c-1.7,0-3,1.4-3,3c0,1.7,1.4,3,3,3h283.5c1.7,0,3-1.4,3-3
				C710.4,410.1,709.1,408.7,707.4,408.7z"/>
			<path class="st4" d="M657.1,422.5H423.8c-1.7,0-3,1.4-3,3c0,1.7,1.4,3,3,3h233.3c1.7,0,3-1.4,3-3
				C660.1,423.8,658.8,422.5,657.1,422.5z"/>
		</g>
	</g>
	<path class="st4" d="M553.3,655.1H408.2c-2.7,0-4.9-2.2-4.9-4.9l0,0c0-2.7,2.2-4.9,4.9-4.9h145.2c2.7,0,4.9,2.2,4.9,4.9l0,0
		C558.2,652.9,556,655.1,553.3,655.1z"/>
	<path class="st4" d="M723.1,559.2H408.2c-2.7,0-4.9-2.2-4.9-4.9l0,0c0-2.7,2.2-4.9,4.9-4.9h314.9c2.7,0,4.9,2.2,4.9,4.9l0,0
		C728,557,725.8,559.2,723.1,559.2z"/>
	<path class="st4" d="M723.1,290.1H408.2c-2.7,0-4.9-2.2-4.9-4.9l0,0c0-2.7,2.2-4.9,4.9-4.9h314.9c2.7,0,4.9,2.2,4.9,4.9l0,0
		C728,287.9,725.8,290.1,723.1,290.1z"/>
	<path class="st4" d="M723.1,312.3H408.2c-2.7,0-4.9-2.2-4.9-4.9l0,0c0-2.7,2.2-4.9,4.9-4.9h314.9c2.7,0,4.9,2.2,4.9,4.9l0,0
		C728,310.1,725.8,312.3,723.1,312.3z"/>
	<path class="st4" d="M573,334.5H408.2c-2.7,0-4.9-2.2-4.9-4.9l0,0c0-2.7,2.2-4.9,4.9-4.9H573c2.7,0,4.9,2.2,4.9,4.9l0,0
		C577.9,332.3,575.7,334.5,573,334.5z"/>
	<path class="st4" d="M723.1,655.1H577.9c-2.7,0-4.9-2.2-4.9-4.9l0,0c0-2.7,2.2-4.9,4.9-4.9h145.2c2.7,0,4.9,2.2,4.9,4.9l0,0
		C728,652.9,725.8,655.1,723.1,655.1z"/>
	<g>
		<path class="st4" d="M703.3,223.3H475.5c-1.7,0-3,1.4-3,3c0,1.7,1.4,3,3,3h227.8c1.7,0,3-1.4,3-3
			C706.3,224.6,705,223.3,703.3,223.3z"/>
		<path class="st4" d="M577.6,237H475.5c-1.7,0-3,1.4-3,3c0,1.7,1.4,3,3,3h102.1c1.7,0,3-1.4,3-3C580.6,238.4,579.2,237,577.6,237z"
			/>
	</g>
</g>
<linearGradient id="SVGID_6_" gradientUnits="userSpaceOnUse" x1="418.5356" y1="511.658" x2="722.2408" y2="511.658" gradientTransform="matrix(0.9994 3.390000e-02 -3.390000e-02 0.9994 15.0307 -16.6988)">
	<stop  offset="0" style="stop-color:#001D47"/>
	<stop  offset="1" style="stop-color:#001D47;stop-opacity:0.6"/>
</linearGradient>
<path class="st21" d="M719.5,514.8l-5.5-41.2c-0.5-3.8-4-6.5-7.8-6l-284.4,37.7c-3.8,0.5-6.5,4-6,7.8l5.5,41.2c0.5,3.8,4,6.5,7.8,6
	l284.4-37.7C717.4,522.1,720,518.6,719.5,514.8z"/>
<g>
	<path class="st14" d="M723.3,493l-303.2,63c-4.1,0.8-8-1.8-8.9-5.8l-9.1-43.9c-0.8-4.1,1.8-8,5.8-8.9l303.2-63
		c4.1-0.8,8,1.8,8.9,5.8l9.1,43.9C730,488.1,727.4,492.1,723.3,493z"/>
	<g>
		<path class="st4" d="M702.4,456.6l-277.6,57.7c-1.6,0.3-2.7,2-2.4,3.6c0.3,1.6,2,2.7,3.6,2.4l277.6-57.7c1.6-0.3,2.7-2,2.4-3.6
			C705.7,457.3,704,456.3,702.4,456.6z"/>
		<path class="st4" d="M656,480.3l-228.4,47.5c-1.6,0.3-2.7,2-2.4,3.6c0.3,1.6,2,2.7,3.6,2.4l228.4-47.5c1.6-0.3,2.7-2,2.4-3.6
			C659.2,481,657.6,479.9,656,480.3z"/>
	</g>
</g>
<g>
	<path class="st12" d="M282.6,776c-1.4,3.5,0.2,6.2,3.7,6.2h29.1c3,0,6-3.8,4.4-5.6l-5.9-7.2c-0.2-0.2-0.3-0.5-0.3-0.7
		c-9,0-18.7,0-27.8,0L282.6,776z"/>
	<linearGradient id="SVGID_7_" gradientUnits="userSpaceOnUse" x1="285.8277" y1="696.7862" x2="352.2457" y2="696.7862">
		<stop  offset="0" style="stop-color:#FF8262"/>
		<stop  offset="0.3173" style="stop-color:#ED715E"/>
		<stop  offset="0.6952" style="stop-color:#DD625A"/>
		<stop  offset="1" style="stop-color:#D85D59"/>
	</linearGradient>
	<path class="st22" d="M313.7,767.3l27.6-58.5c7.2-14.2,11.6-30.6,10.9-43.3l-1.4-24c-0.2-3.9-52.7-16.7-52.7-16.7
		c0,3.1,7.3,25.1,7.3,25.1l11.9,38.8c1.1,3.6,0.9,7.4-0.7,10.8l-30.8,69.2c9.1,0,18.8,0,27.8,0C313.5,768.3,313.5,767.8,313.7,767.3
		z"/>
	<path class="st23" d="M345.9,516.3l4.4-13.1c2-5.9,8.3-9.3,14.3-7.7l1.5,0.4c6.5,1.8,10.3,8.6,8.2,15.1l-4.3,13.5
		c-2.2,6.9-10.1,10.3-16.6,7l-1.6-0.8C346.6,528.1,344,521.9,345.9,516.3z"/>
	<linearGradient id="SVGID_8_" gradientUnits="userSpaceOnUse" x1="345.284" y1="512.92" x2="379.948" y2="512.92">
		<stop  offset="0" style="stop-color:#FF8262"/>
		<stop  offset="1" style="stop-color:#D85D59"/>
	</linearGradient>
	<path class="st24" d="M374.7,509.9c5.7,1.5,11.1-8.2-8.5-13.9l-1.5-0.4c-6-1.6-12.3,1.7-14.3,7.7l-4.4,13.1
		c-1.9,5.6,0.6,11.7,5.9,14.4c1.1-0.1,2.2-0.3,3.4-0.3C366.9,522.6,362.6,507.7,374.7,509.9z"/>
	<linearGradient id="SVGID_9_" gradientUnits="userSpaceOnUse" x1="293.4408" y1="685.0209" x2="377.7451" y2="685.0209">
		<stop  offset="0" style="stop-color:#FF8262"/>
		<stop  offset="0.3048" style="stop-color:#FA7D61"/>
		<stop  offset="0.6827" style="stop-color:#EA6E5D"/>
		<stop  offset="1" style="stop-color:#D85D59"/>
	</linearGradient>
	<path class="st25" d="M376.3,767.3l1.3-58.5c0.8-14.2-2.2-30.6-8.6-43.3c0,0-20.7-36.4-20.9-40.7c0,0,0-0.6,0-1.6c0-3,0.1-6,0.4-9
		c-18.2-1.3-35.7-7.8-54-12.9c-2.6,11.3,0.1,23.1,7.4,32.1l13.3,16.5l33.2,44.3c2.1,2.8,3.2,6.3,3.1,9.8l-2.1,64.8
		c9.3,0,18.1,0,27.5,0C376.6,768.3,376.4,767.8,376.3,767.3z"/>
	<path class="st12" d="M386.7,776.7l-9.1-7.2c-0.3-0.2-0.5-0.5-0.7-0.7c-9.4,0-18.2,0-27.5,0l-0.2,7.3c0.2,3.5,3,6.2,6.5,6.2h29.1
		C387.7,782.3,389,778.5,386.7,776.7z"/>
	<path class="st26" d="M405.6,553.4c-4.3,4.4-7.4,7.7-7.4,7.7l-12.3-19.1c-6.5-10-15.4-18.4-26.1-23.6c-0.6-0.3-1.2-0.6-1.7-0.8
		c-12.3-5.5-26.7-4.6-37.7,3c-3.7,2.6-6.8,5.7-8.1,9.4c-3,8.6-12.3,47.8-17.9,71.3c0,0,0,0.1,0,0.1c18.4,5.2,35.8,11.6,54,12.9
		c1.4-16.3,6.9-32.1,16.1-45.8l25.6,18c5,3.5,11.9,3,16.2-1.4c5.3-5.3,10.4-10.9,15-16.3C418.4,560.6,413.4,552.9,405.6,553.4z"/>
	<path class="st23" d="M430.9,531c-3.3,0.5-16.8,13.7-25.4,22.4c7.8-0.5,12.9,7.2,15.8,15.3c10.6-12.5,18.4-23.8,19.6-26.7
		C443.1,536.6,435.9,530.3,430.9,531z"/>
</g>
<path class="st26" d="M389.3,238.2L389.3,238.2l0.2-56.3l-19.9,3.3c-10.3,1.7-18.7,9.2-21.6,19.1l-5.4,27.6
	c-2,6.9,1.8,14.2,8.6,16.6l23.8,12C382.3,255,387,246.6,389.3,238.2z"/>
<path class="st23" d="M413.7,257.7l-24.4-19.5c-2.3,8.5-7,16.8-14.2,22.4l31.3,15.8c5.5,1.9,11.4-1.3,12.9-6.9
	C420.6,264.7,418.2,259.7,413.7,257.7z"/>
<path class="st23" d="M371,193.1l1.5-12.3c0.8-6.6,6.6-11.5,13.3-11.1l0,0c7.2,0.4,12.6,6.7,11.9,13.9l-1.3,12.4
	c-0.8,7.7-8.3,12.9-15.8,10.9l-0.2-0.1C374.3,205.3,370.3,199.4,371,193.1z"/>
<path class="st12" d="M371.2,191.3c0,0,5.9-3.3,6.4-11.4c0,0,12.7,4.8,20.1,1.7c7.4-3.1,6-11.9,1.1-14.4c-6-3-9.3,2.4-9.3,2.4
	s-8.1-2.5-14.4,3.4C368.6,179.1,371.2,191.3,371.2,191.3z"/>
<path class="st12" d="M389.3,238.2L370,224.5c-1.3-0.9-0.3-2.9,1.2-2.4l18.2,5.4L389.3,238.2z"/>
<path class="st5" d="M342.1,340H162.7c-3.2,0-5.8,2.6-5.8,5.8l0,0c0,3.2,2.6,5.8,5.8,5.8h179.4c3.2,0,5.8-2.6,5.8-5.8l0,0
	C347.9,342.6,345.3,340,342.1,340z"/>
<path class="st5" d="M133.9,340.3h179.4c3.2,0,5.8-2.6,5.8-5.8l0,0c0-3.2-2.6-5.8-5.8-5.8H133.9c-3.2,0-5.8,2.6-5.8,5.8l0,0
	C128,337.7,130.7,340.3,133.9,340.3z"/>
<path class="st5" d="M142.7,328.6h197.4c1.6,0,2.9-1.3,2.9-2.9l0,0c0-1.6-1.3-2.9-2.9-2.9H142.7c-1.6,0-2.9,1.3-2.9,2.9l0,0
	C139.7,327.3,141,328.6,142.7,328.6z"/>
<path class="st23" d="M535.5,158.5c-0.8,7.5,1.3,15.1,5.6,20.5l22.1,27.1c2,2.4,5.1,2.7,7.3,0.7c2.6-2.3,3.1-6.9,1.1-10l-19.3-32
	l2.3-10.3c-6.2-0.9-12.3-2.4-18.2-4.5L535.5,158.5z"/>
<path class="st23" d="M622.6,142.8c-4.9,2.4-9.9,4.6-15.1,6.3l7.2,18.4l-10.3,28.8c-1.5,4.2,0.1,9.2,3.6,10.9c3.3,1.6,7-0.2,8.5-4.2
	l10.5-28.3c2.4-6.4,2.4-13.8,0-20.2L622.6,142.8z"/>
<path class="st14" d="M617.5,129.2c-4.5-12.2-13.7-20.9-24.4-23l-20-4c-12.5-2.5-24.9,4.9-31.2,18.6c-2,4.5-3.4,9.4-3.9,14.5
	l-1.6,14.6c5.9,2.1,12,3.6,18.2,4.5l0.5-2.4c1.5-7,6.5-12,12.3-12.5l26-2.1c5.6-0.4,10.8,3.3,13.2,9.5l0.8,2.1
	c5.2-1.8,10.3-3.9,15.1-6.3L617.5,129.2z"/>
<path class="st23" d="M568.7,137.2l1.5-12.3c0.8-6.6,6.6-11.5,13.3-11.1l0,0c7.2,0.4,12.6,6.7,11.9,13.9L594,140
	c-0.8,7.7-8.3,12.9-15.8,10.9l-0.2-0.1C571.9,149.3,567.9,143.4,568.7,137.2z"/>
<linearGradient id="SVGID_10_" gradientUnits="userSpaceOnUse" x1="520.1208" y1="125.3645" x2="600.1557" y2="125.3645">
	<stop  offset="0" style="stop-color:#FF8262"/>
	<stop  offset="1" style="stop-color:#D85D59"/>
</linearGradient>
<path class="st27" d="M577.1,121.4c0,0,7.6,14.6,17.1,16.1c0,0,4.8-4.2,5.7-9.4c1.2-7-3.6-16-10.6-18c-16.5-4.7-22,7.4-33.1,5.9
	c-11.1-1.5-10.6-7.5-19.9-7.6c-21.6-0.3-22.1,24.7,1.1,31.2c23.3,6.5,31.1-0.3,31.1-0.3l0.6-6.7
	C569.2,132.6,573.7,128.7,577.1,121.4z"/>
<g class="st28">
	<g>
		<path class="st7" d="M241.2,118.7c-0.2,0-0.3,0-0.5-0.1l-6.7-2.7c-2.9,1.8-6.2,2.7-9.7,2.7c-10.2,0-18.4-8.3-18.4-18.4
			c0-10.2,8.3-18.4,18.4-18.4c10.2,0,18.4,8.3,18.4,18.4c0,3.9-1.2,7.6-3.5,10.7l3,5.9c0.2,0.5,0.1,1-0.2,1.4
			C241.9,118.5,241.5,118.7,241.2,118.7z M224.4,84.3c-8.8,0-16,7.2-16,16s7.2,16,16,16c3.2,0,6.2-0.9,8.8-2.7
			c0.3-0.2,0.8-0.3,1.1-0.1l4.3,1.7l-1.9-3.7c-0.2-0.4-0.2-0.9,0.1-1.3c2.2-2.8,3.4-6.2,3.4-9.8C240.3,91.5,233.2,84.3,224.4,84.3z"
			/>
		<g>
			<path class="st7" d="M299.4,101.5c-5.4,0-9.8-4.4-9.8-9.8c0-5.4,4.4-9.8,9.8-9.8c5.4,0,9.8,4.4,9.8,9.8
				C309.2,97.1,304.8,101.5,299.4,101.5z M299.4,84.4c-4,0-7.3,3.3-7.3,7.3c0,4,3.3,7.3,7.3,7.3c4,0,7.3-3.3,7.3-7.3
				C306.7,87.7,303.5,84.4,299.4,84.4z"/>
			<path class="st7" d="M311.2,118.6h-23.6c-1.6,0-3.1-0.8-4-2.2c-0.9-1.3-1-3-0.3-4.4c2.9-6.4,9.2-10.5,16.1-10.5
				c6.9,0,13.3,4.1,16.1,10.5c0.6,1.4,0.5,3.1-0.3,4.4C314.3,117.8,312.8,118.6,311.2,118.6z M299.4,104c-6,0-11.4,3.5-13.9,9
				c-0.3,0.7-0.2,1.4,0.2,2.1c0.4,0.7,1.1,1.1,1.9,1.1h23.6c0.8,0,1.5-0.4,1.9-1.1c0.4-0.6,0.5-1.4,0.2-2.1
				C310.8,107.5,305.4,104,299.4,104z"/>
		</g>
		<path class="st7" d="M240.2,181.9h-8.8c-1.9,0-3.4-1.5-3.4-3.4v-11.9c0-1.1-0.5-2.1-1.3-2.7c-0.8-0.7-1.8-1-2.9-0.9
			c-1.7,0.2-3.1,2-3.1,4v11.6c0,1.9-1.5,3.4-3.4,3.4h-8.8c-1.9,0-3.4-1.5-3.4-3.4v-13.2c0-1.1,0.4-2.2,1.2-3.1l15-16.1l0,0
			c0.8-0.8,1.9-1.3,3-1.3h0c1.1,0,2.2,0.5,3,1.3l15,16.1c0.8,0.8,1.2,1.9,1.2,3.1v13.2C243.6,180.4,242.1,181.9,240.2,181.9z
			 M224.4,160.5c1.5,0,2.9,0.5,4,1.5c1.3,1.2,2.1,2.8,2.1,4.6v11.9c0,0.5,0.4,0.9,0.9,0.9h8.8c0.5,0,0.9-0.4,0.9-0.9v-13.2
			c0-0.5-0.2-1-0.6-1.4l-15-16.1c-0.3-0.3-0.8-0.5-1.2-0.5h0c-0.5,0-0.9,0.2-1.2,0.5l-15,16.1c-0.4,0.4-0.6,0.9-0.6,1.4v13.2
			c0,0.5,0.4,0.9,0.9,0.9h8.8c0.5,0,0.9-0.4,0.9-0.9V167c0-3.2,2.2-6,5.2-6.4C223.8,160.6,224.1,160.5,224.4,160.5z"/>
		<g>
			<path class="st7" d="M299.4,179.2c-9.4,0-17-7.6-17-17s7.6-17,17-17s17,7.6,17,17S308.8,179.2,299.4,179.2z M299.4,147.6
				c-8,0-14.5,6.5-14.5,14.5c0,8,6.5,14.5,14.5,14.5c8,0,14.5-6.5,14.5-14.5C314,154.2,307.4,147.6,299.4,147.6z"/>
			<path class="st7" d="M314.7,181.6c-0.3,0-0.7-0.1-0.9-0.4l-5.3-6.1c-0.4-0.5-0.4-1.3,0.1-1.7c0.5-0.4,1.3-0.4,1.7,0.1l5.3,6.1
				c0.4,0.5,0.4,1.3-0.1,1.7C315.3,181.5,315,181.6,314.7,181.6z"/>
		</g>
		<path class="st7" d="M224.4,244.6c-0.3,0-0.5-0.1-0.8-0.3c-0.8-0.6-18.8-14.9-18.8-25.2c0.2-5.9,5-10.6,10.9-10.6
			c3.4,0,6.6,1.6,8.6,4.2c2-2.7,5.2-4.2,8.6-4.2c5.9,0,10.7,4.6,10.9,10.5c0,10.3-18,24.7-18.8,25.3
			C224.9,244.5,224.7,244.6,224.4,244.6z M215.8,211c-4.6,0-8.3,3.6-8.5,8.2c0,8,13.7,19.8,17.1,22.6c3.4-2.8,17.1-14.7,17.1-22.7
			c-0.2-4.5-3.9-8.1-8.5-8.1c-3.2,0-6.1,1.8-7.5,4.6c-0.2,0.4-0.6,0.7-1.1,0.7l0,0c-0.5,0-0.9-0.3-1.1-0.7
			C221.8,212.7,219,211,215.8,211z"/>
		<g>
			<g>
				<path class="st7" d="M316.8,239.7c-0.7,0-1.2-0.5-1.2-1.2v-22.6c0-2.5-2-4.5-4.5-4.5h-22.6c-0.7,0-1.2-0.5-1.2-1.2
					c0-0.7,0.5-1.2,1.2-1.2h22.6c3.8,0,7,3.1,7,7v22.6C318,239.2,317.5,239.7,316.8,239.7z"/>
				<path class="st7" d="M316.8,239.7L316.8,239.7c-0.3,0-0.6-0.1-0.9-0.4l-5.6-5.6c-0.5-0.5-0.5-1.3,0-1.7c0.5-0.5,1.3-0.5,1.7,0
					l4.7,4.7l4.7-4.7c0.5-0.5,1.3-0.5,1.7,0c0.5,0.5,0.5,1.3,0,1.7l-5.6,5.6C317.4,239.6,317.1,239.7,316.8,239.7z"/>
			</g>
			<g>
				<path class="st7" d="M310.4,244.1h-22.6c-3.8,0-7-3.1-7-7v-22.6c0-0.7,0.5-1.2,1.2-1.2c0.7,0,1.2,0.5,1.2,1.2v22.6
					c0,2.5,2,4.5,4.5,4.5h22.6c0.7,0,1.2,0.5,1.2,1.2C311.6,243.6,311,244.1,310.4,244.1z"/>
				<path class="st7" d="M287.6,221.4c-0.3,0-0.6-0.1-0.9-0.4l-4.7-4.7l-4.7,4.7c-0.5,0.5-1.3,0.5-1.7,0c-0.5-0.5-0.5-1.3,0-1.7
					l5.6-5.6c0.2-0.2,0.5-0.4,0.9-0.4l0,0c0.3,0,0.6,0.1,0.9,0.4l5.6,5.6c0.5,0.5,0.5,1.3,0,1.7
					C288.3,221.3,287.9,221.4,287.6,221.4z"/>
			</g>
		</g>
	</g>
</g>
<g>
	<path class="st7" d="M958.6,405.7c0,6.6-5.4,12-12,12c-6.6,0-12-5.4-12-12s5.4-12,12-12C953.2,393.8,958.6,399.1,958.6,405.7z"/>
	<path class="st29" d="M958.6,441.2c0,6.6-5.4,12-12,12c-6.6,0-12-5.4-12-12s5.4-12,12-12C953.2,429.2,958.6,434.6,958.6,441.2z"/>
	<path class="st30" d="M958.6,476.6c0,6.6-5.4,12-12,12c-6.6,0-12-5.4-12-12c0-6.6,5.4-12,12-12C953.2,464.6,958.6,470,958.6,476.6z
		"/>
</g>
</svg>
